<?xml version="1.0" standalone="no"?>
<!DOCTYPE svg PUBLIC "-//W3C//DTD SVG 20010904//EN"
 "http://www.w3.org/TR/2001/REC-SVG-20010904/DTD/svg10.dtd">
<svg version="1.0" xmlns="http://www.w3.org/2000/svg"
 width="310.000000pt" height="310.000000pt" viewBox="0 0 310.000000 310.000000"
 preserveAspectRatio="xMidYMid meet">
<metadata>
Created by potrace 1.14, written by Peter Selinger 2001-2017
</metadata>
<g transform="translate(0.000000,310.000000) scale(0.100000,-0.100000)"
fill="#000000" stroke="none">
<path d="M1400 3094 c-89 -9 -256 -47 -354 -81 -230 -80 -407 -192 -586 -372
-234 -235 -374 -499 -436 -821 -27 -144 -25 -409 4 -557 64 -318 213 -594 445
-820 222 -216 484 -354 790 -415 157 -31 436 -31 581 1 325 71 568 202 797
430 234 235 377 506 435 826 25 136 25 402 0 535 -61 320 -202 586 -436 821
-224 226 -477 363 -790 429 -94 20 -349 33 -450 24z m365 -139 c239 -38 449
-128 645 -276 90 -68 91 -75 20 -112 -54 -26 -66 -61 -27 -76 13 -5 27 -19 30
-30 4 -19 9 -20 32 -11 32 12 30 13 39 -22 6 -28 6 -28 -48 -28 -56 0 -71 -8
-102 -56 -10 -14 -30 -25 -54 -29 -33 -6 -39 -11 -42 -37 -3 -19 0 -32 9 -35
7 -3 13 -14 13 -25 0 -17 -5 -19 -44 -13 -59 9 -103 -1 -109 -26 -3 -10 -3
-37 0 -58 4 -31 11 -42 33 -51 41 -17 118 -3 132 24 28 53 70 96 96 96 14 0
34 8 44 17 17 16 19 15 33 -4 8 -12 35 -34 60 -49 48 -31 52 -45 15 -54 -20
-5 -21 -7 -7 -18 21 -18 67 -5 67 18 0 10 3 25 6 33 3 10 -2 18 -15 22 -29 9
-81 60 -81 79 0 27 48 19 90 -16 28 -24 40 -41 40 -60 0 -16 12 -41 29 -60
l28 -31 14 44 c17 52 49 67 49 23 0 -41 36 -74 81 -74 35 0 38 -2 53 -47 24
-71 23 -73 -41 -73 -44 0 -63 5 -89 25 -22 17 -45 25 -73 25 -37 0 -41 -2 -41
-25 0 -29 -2 -30 -38 -11 -15 7 -51 19 -79 26 l-53 12 0 40 0 41 -86 -6 c-47
-2 -91 -10 -97 -16 -6 -6 -35 -11 -64 -11 -34 0 -68 -7 -93 -20 -37 -19 -40
-24 -40 -60 0 -39 -3 -43 -80 -98 -43 -31 -79 -63 -80 -69 0 -7 9 -22 20 -33
24 -24 26 -48 5 -56 -11 -5 -15 -22 -15 -65 0 -58 0 -58 71 -139 l72 -80 81 6
c45 4 88 13 97 20 21 18 83 18 99 -1 6 -7 32 -17 57 -21 l45 -7 -6 -58 c-7
-56 -5 -60 44 -147 l50 -90 -25 -43 c-30 -54 -32 -99 -5 -124 16 -14 20 -31
20 -75 0 -47 5 -63 30 -96 23 -30 30 -50 30 -86 0 -40 3 -47 21 -50 17 -2 2
-22 -89 -110 -292 -285 -642 -420 -1047 -405 -166 6 -248 21 -405 73 -407 135
-748 477 -884 884 -60 180 -71 253 -71 460 0 204 11 278 68 450 29 86 32 92
35 58 2 -29 9 -38 33 -48 27 -12 29 -16 29 -68 0 -42 7 -67 26 -101 15 -25 27
-47 28 -47 1 -1 11 -5 24 -8 36 -12 38 18 3 72 -20 32 -31 61 -31 85 0 53 26
49 33 -5 3 -25 21 -64 44 -98 31 -45 38 -61 30 -77 -7 -15 -3 -29 15 -57 27
-42 75 -60 151 -58 40 1 47 -2 47 -18 0 -14 10 -20 43 -25 34 -6 52 -18 93
-61 48 -52 53 -54 101 -54 l51 0 7 -47 c5 -35 3 -48 -8 -54 -48 -27 -59 -45
-66 -109 l-8 -65 52 -65 c29 -36 55 -77 59 -92 4 -17 13 -28 23 -28 10 0 39
-15 65 -32 l48 -33 0 -122 c0 -95 3 -124 14 -130 12 -7 12 -18 4 -60 -10 -50
-9 -55 16 -87 23 -31 26 -41 20 -89 -6 -48 -3 -59 25 -109 18 -31 52 -75 76
-97 37 -34 52 -41 84 -41 54 0 59 15 21 55 -21 21 -30 39 -27 51 3 11 8 29 12
42 5 19 3 22 -20 22 -32 0 -43 25 -21 49 21 24 20 38 -4 46 -28 9 -25 24 8 30
69 15 117 47 155 104 20 31 47 68 58 82 19 23 20 32 11 72 -13 62 4 87 59 87
25 0 51 8 69 21 26 20 29 28 35 105 7 75 11 89 41 129 41 53 45 90 10 99 -14
3 -33 20 -43 36 -16 28 -21 30 -83 31 -39 0 -83 7 -110 18 -40 17 -46 23 -52
59 -11 68 -33 92 -83 92 -39 0 -46 4 -65 36 -26 41 -68 72 -78 57 -4 -5 -24
-13 -44 -16 -32 -5 -41 -2 -56 18 -13 16 -34 27 -62 31 -40 7 -44 5 -78 -35
l-37 -42 -57 12 -57 12 -3 61 -3 61 -37 9 c-38 10 -47 23 -27 43 6 6 9 22 7
37 l-3 26 -52 -35 c-51 -34 -94 -44 -121 -27 -25 17 -26 77 -1 127 34 68 91
95 199 95 78 0 80 0 80 -25 0 -17 9 -29 29 -40 l30 -15 3 52 c3 52 4 53 66 96
36 26 62 51 62 61 0 18 110 131 127 131 5 0 33 22 63 50 42 40 56 47 71 40 12
-7 20 -6 25 1 6 10 -7 24 -30 32 -5 2 -7 11 -3 20 8 21 40 22 57 2 16 -19 67
-19 77 0 6 9 13 11 23 5 12 -7 12 -11 -3 -28 -23 -25 -22 -31 8 -42 61 -23 75
-23 75 -1 0 15 -9 25 -30 32 -37 13 -38 26 -5 39 17 7 25 17 25 35 0 15 -9 31
-25 41 -20 13 -25 25 -25 55 0 43 -9 47 -50 24 -42 -24 -58 -19 -56 17 1 29
-2 32 -46 43 -66 18 -86 2 -90 -67 -3 -51 -4 -53 -39 -61 -27 -6 -40 -17 -52
-43 -23 -48 -47 -45 -47 6 0 36 -2 40 -25 40 -40 0 -82 26 -89 56 -4 14 -6 27
-4 29 2 1 31 18 64 38 73 44 124 58 124 34 0 -24 22 -32 35 -14 7 10 18 17 24
17 8 0 10 8 6 20 -5 16 -2 20 19 20 15 0 30 8 35 19 16 29 105 39 132 15 19
-17 19 -18 -26 -42 -25 -14 -45 -28 -45 -32 0 -6 97 -30 121 -30 3 0 9 9 12
20 4 15 14 20 36 20 39 0 65 38 32 47 -15 4 -21 13 -21 32 0 23 -8 30 -66 55
-70 31 -128 32 -188 5 -25 -12 -27 -17 -23 -47 6 -31 4 -33 -21 -30 -35 4 -40
33 -12 63 l21 23 -43 4 c-53 5 -75 0 -82 -19 -4 -9 1 -17 13 -20 30 -8 15 -43
-20 -43 -15 0 -31 -4 -34 -10 -3 -5 -26 -10 -51 -10 -37 0 -44 3 -44 19 0 15
10 21 39 26 46 8 81 39 63 57 -9 9 -17 7 -34 -9 -29 -27 -74 -20 -101 14 -27
34 -87 32 -134 -4 l-37 -28 35 -5 c24 -4 34 -10 33 -22 -1 -12 9 -19 37 -23
25 -4 39 -12 39 -22 0 -12 -8 -13 -42 -8 -23 4 -48 14 -56 21 -7 8 -24 14 -37
14 -13 0 -27 5 -30 10 -3 6 -25 10 -48 10 l-42 0 45 30 c174 117 413 207 625
233 79 10 299 6 380 -8z"/>
</g>
</svg>
