<svg id="svg" xmlns="http://www.w3.org/2000/svg" xmlns:xlink="http://www.w3.org/1999/xlink" width="400" height="400" viewBox="0, 0, 400,400"><g id="svgg"><path id="path0" d="M215.554 98.980 C 215.455 99.079,210.034 99.441,203.508 99.784 C 189.885 100.502,190.545 100.367,189.971 102.541 C 189.730 103.454,189.294 105.010,189.003 106.000 C 188.712 106.990,188.169 108.880,187.797 110.200 C 187.051 112.844,186.535 114.580,185.775 117.000 C 185.498 117.880,184.972 119.680,184.604 121.000 C 184.237 122.320,183.778 123.850,183.584 124.400 C 183.391 124.950,183.115 126.077,182.971 126.904 C 182.827 127.732,182.550 128.507,182.355 128.628 C 182.160 128.749,182.000 129.168,182.000 129.559 C 182.000 129.951,181.565 131.695,181.034 133.435 C 180.503 135.176,179.676 137.950,179.196 139.600 C 178.717 141.250,178.158 143.140,177.955 143.800 C 177.481 145.337,175.584 151.951,175.316 153.000 C 175.204 153.440,174.754 154.970,174.317 156.400 C 173.880 157.830,173.015 160.800,172.395 163.000 C 170.231 170.678,168.751 175.829,167.567 179.800 C 166.912 182.000,166.096 184.790,165.756 186.000 C 165.415 187.210,164.985 188.650,164.800 189.200 C 164.615 189.750,164.183 191.190,163.841 192.400 C 163.498 193.610,162.566 196.760,161.771 199.400 C 160.976 202.040,160.087 205.100,159.796 206.200 C 159.505 207.300,158.982 209.145,158.633 210.300 C 157.299 214.725,156.733 216.641,156.420 217.800 C 156.241 218.460,155.244 221.880,154.203 225.400 C 153.162 228.920,152.174 232.340,152.006 233.000 C 151.839 233.660,150.850 237.080,149.809 240.600 C 148.769 244.120,147.768 247.540,147.586 248.200 C 147.276 249.325,146.866 250.714,145.400 255.600 C 143.985 260.316,143.519 261.913,143.008 263.800 C 142.710 264.900,142.202 266.700,141.878 267.800 C 135.088 290.861,134.927 291.459,135.365 291.899 C 135.529 292.065,138.124 292.312,141.132 292.450 C 144.139 292.587,150.344 292.923,154.920 293.197 C 159.496 293.470,163.343 293.591,163.468 293.465 C 163.667 293.266,171.885 266.035,173.386 260.600 C 173.690 259.500,174.860 255.540,175.986 251.800 C 179.074 241.547,179.869 238.881,180.821 235.600 C 181.602 232.906,182.989 228.263,183.986 225.000 C 184.639 222.866,188.825 208.685,189.655 205.800 C 190.097 204.260,190.612 202.550,190.798 202.000 C 190.984 201.450,191.439 199.920,191.809 198.600 C 192.179 197.280,192.630 195.750,192.811 195.200 C 192.992 194.650,193.527 192.850,194.000 191.200 C 194.473 189.550,195.012 187.750,195.198 187.200 C 195.384 186.650,195.839 185.120,196.209 183.800 C 196.579 182.480,197.030 180.950,197.211 180.400 C 197.392 179.850,197.927 178.050,198.400 176.400 C 198.873 174.750,199.412 172.950,199.598 172.400 C 199.784 171.850,200.242 170.320,200.617 169.000 C 201.424 166.154,201.695 165.245,210.012 137.400 C 213.560 125.520,216.700 114.900,216.989 113.800 C 217.278 112.700,217.996 110.270,218.586 108.400 C 219.741 104.735,220.777 101.143,221.095 99.700 C 221.280 98.858,216.320 98.214,215.554 98.980 M231.200 148.121 L 231.200 165.443 233.700 166.297 C 235.818 167.021,243.128 169.745,245.800 170.807 C 246.240 170.982,250.110 172.421,254.400 174.006 C 258.690 175.591,263.550 177.397,265.200 178.020 C 269.738 179.735,280.390 183.653,282.200 184.273 C 283.080 184.575,284.160 184.975,284.600 185.163 C 285.915 185.724,288.418 186.675,291.600 187.822 C 293.250 188.417,295.140 189.127,295.800 189.401 C 296.460 189.674,300.060 191.015,303.800 192.380 C 307.540 193.745,310.913 195.028,311.295 195.231 C 311.677 195.434,312.189 195.600,312.434 195.600 C 312.679 195.600,313.446 195.848,314.140 196.152 C 314.833 196.456,317.965 197.656,321.100 198.819 C 324.235 199.983,326.800 201.129,326.799 201.367 C 326.799 201.605,322.524 203.389,317.299 205.332 C 312.075 207.274,307.170 209.109,306.400 209.409 C 305.630 209.708,301.130 211.390,296.400 213.146 C 291.670 214.901,277.540 220.147,265.000 224.802 C 252.460 229.458,240.670 233.821,238.800 234.499 C 236.930 235.176,235.229 235.881,235.020 236.065 C 234.811 236.249,234.388 236.400,234.080 236.400 C 233.773 236.400,232.954 236.669,232.260 236.998 L 231.000 237.596 231.098 254.698 C 231.151 264.104,231.196 271.827,231.198 271.861 C 231.204 272.022,235.315 270.603,242.400 267.993 C 250.821 264.891,255.368 263.241,264.400 260.013 C 267.590 258.872,270.830 257.695,271.600 257.397 C 273.188 256.783,280.040 254.299,285.400 252.396 C 287.380 251.692,289.360 250.962,289.800 250.772 C 290.240 250.582,292.940 249.592,295.800 248.571 C 298.660 247.550,303.610 245.758,306.800 244.588 C 309.990 243.419,316.200 241.170,320.600 239.590 C 325.000 238.010,331.210 235.762,334.400 234.593 C 344.449 230.911,350.945 228.548,367.200 222.661 L 383.000 216.939 383.000 201.386 L 383.000 185.833 380.400 184.869 C 378.970 184.339,377.440 183.765,377.000 183.594 C 376.560 183.423,374.580 182.712,372.600 182.014 C 370.620 181.317,368.370 180.500,367.600 180.201 C 366.830 179.901,364.130 178.911,361.600 178.000 C 359.070 177.089,356.370 176.094,355.600 175.788 C 354.830 175.483,351.860 174.408,349.000 173.400 C 346.140 172.391,342.900 171.228,341.800 170.814 C 333.243 167.593,324.499 164.400,324.237 164.400 C 324.063 164.400,323.354 164.148,322.660 163.839 C 321.967 163.531,317.800 161.986,313.400 160.407 C 309.000 158.827,302.306 156.384,298.525 154.979 C 288.620 151.296,281.696 148.800,281.388 148.800 C 281.241 148.800,280.554 148.543,279.860 148.228 C 279.167 147.913,275.720 146.633,272.200 145.384 C 268.680 144.134,265.260 142.884,264.600 142.605 C 263.940 142.326,262.590 141.822,261.600 141.485 C 260.610 141.148,257.055 139.866,253.700 138.636 C 250.345 137.406,244.855 135.395,241.500 134.168 C 238.145 132.940,234.721 131.680,233.892 131.368 C 230.983 130.273,231.200 128.925,231.200 148.121 M124.400 135.120 C 124.070 135.235,120.676 136.830,116.858 138.665 C 113.039 140.499,109.851 142.000,109.772 142.000 C 109.633 142.000,105.336 144.032,95.200 148.890 C 92.450 150.209,89.210 151.734,88.000 152.281 C 86.790 152.828,83.730 154.274,81.200 155.494 C 78.670 156.714,75.160 158.386,73.400 159.209 C 71.640 160.033,68.400 161.559,66.200 162.600 C 57.722 166.614,53.914 168.411,44.200 172.984 C 42.000 174.020,38.130 175.850,35.600 177.051 C 33.070 178.252,26.500 181.357,21.000 183.951 L 11.000 188.668 10.894 201.102 L 10.789 213.537 12.894 214.533 C 14.052 215.080,16.800 216.370,19.000 217.398 C 23.757 219.622,27.373 221.343,35.305 225.159 C 38.552 226.722,41.272 228.000,41.348 228.000 C 41.425 228.000,44.258 229.327,47.644 230.948 C 58.212 236.009,62.422 238.000,62.557 238.000 C 62.629 238.000,65.458 239.327,68.844 240.948 C 83.413 247.925,85.590 248.956,92.200 252.002 C 93.520 252.610,96.940 254.229,99.800 255.598 C 108.282 259.660,112.048 261.444,114.800 262.703 C 116.230 263.357,118.930 264.626,120.800 265.522 C 122.670 266.419,124.423 267.208,124.696 267.276 C 125.083 267.373,125.214 263.869,125.296 251.324 L 125.400 235.248 123.200 234.257 C 118.378 232.085,116.278 231.159,114.000 230.200 C 112.691 229.649,110.670 228.765,109.510 228.235 C 108.349 227.705,102.630 225.171,96.800 222.604 C 90.970 220.037,84.257 217.050,81.883 215.968 C 79.508 214.886,77.475 214.000,77.364 214.000 C 77.254 214.000,75.831 213.376,74.202 212.614 C 72.573 211.851,70.146 210.766,68.807 210.203 C 67.469 209.640,65.216 208.648,63.800 208.000 C 62.384 207.352,60.134 206.362,58.800 205.800 C 57.466 205.238,55.165 204.224,53.687 203.545 C 52.209 202.866,50.580 202.150,50.067 201.953 C 48.531 201.364,49.206 200.808,54.015 198.703 C 58.424 196.774,59.850 196.138,64.912 193.847 C 66.183 193.271,67.320 192.800,67.437 192.800 C 67.555 192.800,68.675 192.329,69.926 191.754 C 71.177 191.178,73.640 190.080,75.400 189.314 C 77.160 188.548,79.500 187.506,80.600 186.998 C 81.700 186.491,84.219 185.406,86.197 184.588 C 88.175 183.770,91.055 182.514,92.597 181.796 C 94.139 181.079,97.380 179.643,99.800 178.605 C 102.220 177.567,105.100 176.307,106.200 175.805 C 110.093 174.026,111.863 173.249,117.600 170.798 C 120.790 169.435,123.815 168.103,124.322 167.837 L 125.245 167.354 125.233 151.221 C 125.226 142.348,125.171 135.048,125.111 134.999 C 125.050 134.950,124.730 135.004,124.400 135.120 " stroke="none" fill="#c263fa" fill-rule="evenodd"></path><path id="path1" d="M312.600 0.669 C 309.520 0.977,305.695 1.326,304.100 1.446 C 302.505 1.565,301.200 1.809,301.200 1.987 C 301.200 2.165,298.678 2.441,295.596 2.600 C 292.513 2.760,289.906 3.028,289.802 3.197 C 289.698 3.365,287.179 3.633,284.205 3.792 C 281.230 3.952,278.710 4.222,278.605 4.392 C 278.499 4.563,275.979 4.833,273.005 4.992 C 270.030 5.152,267.497 5.444,267.375 5.641 C 267.253 5.838,265.903 6.000,264.376 6.000 C 262.849 6.000,261.600 6.160,261.600 6.355 C 261.600 6.550,259.080 6.841,256.000 7.000 C 252.920 7.159,250.400 7.428,250.400 7.597 C 250.400 7.765,247.925 8.035,244.900 8.195 C 241.875 8.355,239.220 8.602,239.000 8.743 C 238.780 8.884,236.170 9.218,233.200 9.485 C 230.230 9.752,225.190 10.254,222.000 10.602 C 218.810 10.950,214.895 11.331,213.300 11.449 C 211.705 11.567,210.400 11.809,210.400 11.987 C 210.400 12.165,207.880 12.441,204.800 12.600 C 201.720 12.759,199.200 13.029,199.200 13.200 C 199.200 13.371,196.680 13.641,193.600 13.800 C 190.520 13.959,188.000 14.229,188.000 14.400 C 188.000 14.571,185.480 14.841,182.400 15.000 C 179.320 15.159,176.800 15.450,176.800 15.645 C 176.800 15.840,175.551 16.000,174.024 16.000 C 172.497 16.000,171.149 16.160,171.028 16.355 C 170.907 16.550,168.287 16.840,165.204 17.000 C 162.122 17.159,159.600 17.429,159.600 17.600 C 159.600 17.771,157.078 18.041,153.996 18.200 C 150.913 18.360,148.306 18.628,148.202 18.797 C 148.098 18.965,145.579 19.233,142.605 19.392 C 139.630 19.552,137.110 19.822,137.005 19.992 C 136.899 20.163,134.379 20.433,131.405 20.592 C 128.430 20.752,125.897 21.044,125.775 21.241 C 125.653 21.438,124.314 21.600,122.800 21.600 C 121.286 21.600,119.949 21.760,119.828 21.955 C 119.707 22.150,117.087 22.440,114.004 22.600 C 110.922 22.759,108.400 23.029,108.400 23.200 C 108.400 23.371,105.880 23.641,102.800 23.800 C 99.720 23.959,97.200 24.229,97.200 24.400 C 97.200 24.571,94.680 24.841,91.600 25.000 C 88.520 25.159,86.000 25.450,86.000 25.645 C 86.000 25.840,84.740 26.000,83.200 26.000 C 81.660 26.000,80.400 26.160,80.400 26.355 C 80.400 26.550,77.878 26.841,74.796 27.000 C 71.713 27.160,69.105 27.430,69.000 27.600 C 68.895 27.770,66.285 28.040,63.200 28.200 C 60.115 28.360,57.506 28.628,57.402 28.797 C 57.298 28.965,54.779 29.233,51.805 29.392 C 48.830 29.552,46.310 29.822,46.205 29.992 C 46.099 30.163,43.579 30.433,40.605 30.592 C 37.630 30.752,35.097 31.044,34.975 31.241 C 34.853 31.438,33.503 31.600,31.976 31.600 C 30.449 31.600,29.200 31.760,29.200 31.955 C 29.200 32.150,26.680 32.441,23.600 32.600 C 20.520 32.759,18.000 33.029,18.000 33.200 C 18.000 33.371,15.480 33.641,12.400 33.800 C 9.320 33.959,6.800 34.250,6.800 34.445 C 6.800 34.640,5.675 34.802,4.300 34.805 C 2.925 34.808,1.395 34.919,0.900 35.052 L 0.000 35.293 0.000 199.994 L -0.000 364.695 1.500 364.943 C 2.325 365.080,4.125 365.193,5.500 365.196 C 6.875 365.198,8.000 365.360,8.000 365.555 C 8.000 365.750,10.520 366.041,13.600 366.200 C 16.680 366.359,19.200 366.650,19.200 366.845 C 19.200 367.040,20.449 367.200,21.976 367.200 C 23.503 367.200,24.853 367.362,24.975 367.559 C 25.097 367.756,27.630 368.048,30.605 368.208 C 33.579 368.367,36.099 368.637,36.205 368.808 C 36.310 368.978,38.830 369.248,41.805 369.408 C 44.779 369.567,47.298 369.835,47.402 370.003 C 47.506 370.172,50.115 370.440,53.200 370.600 C 56.285 370.760,58.897 371.033,59.005 371.208 C 59.113 371.383,61.721 371.655,64.801 371.814 C 67.880 371.973,70.400 372.259,70.400 372.451 C 70.400 372.643,71.649 372.800,73.176 372.800 C 74.703 372.800,76.053 372.962,76.175 373.159 C 76.297 373.356,78.830 373.648,81.805 373.808 C 84.779 373.967,87.299 374.237,87.405 374.408 C 87.510 374.578,90.030 374.848,93.005 375.008 C 95.979 375.167,98.500 375.439,98.607 375.611 C 98.714 375.784,101.321 376.055,104.401 376.214 C 107.480 376.373,110.000 376.645,110.000 376.820 C 110.000 376.994,111.305 377.235,112.900 377.354 C 121.802 378.023,127.023 378.557,127.200 378.817 C 127.310 378.979,129.878 379.243,132.906 379.404 C 135.935 379.565,138.499 379.837,138.605 380.008 C 138.710 380.178,141.230 380.448,144.205 380.608 C 147.179 380.767,149.700 381.039,149.807 381.211 C 149.914 381.384,152.521 381.655,155.601 381.814 C 158.680 381.973,161.200 382.259,161.200 382.451 C 161.200 382.643,162.449 382.800,163.976 382.800 C 165.503 382.800,166.853 382.962,166.975 383.159 C 167.097 383.356,169.630 383.648,172.605 383.808 C 175.579 383.967,178.098 384.235,178.202 384.403 C 178.306 384.572,180.915 384.840,184.000 385.000 C 187.085 385.160,189.696 385.432,189.803 385.604 C 189.909 385.777,192.430 386.048,195.405 386.208 C 198.379 386.367,200.911 386.655,201.030 386.849 C 201.149 387.042,202.486 387.200,204.000 387.200 C 205.514 387.200,206.853 387.362,206.975 387.559 C 207.097 387.756,209.630 388.048,212.605 388.208 C 215.579 388.367,218.099 388.637,218.205 388.808 C 218.310 388.978,220.830 389.248,223.805 389.408 C 226.779 389.567,229.299 389.837,229.405 390.008 C 229.510 390.178,232.030 390.448,235.005 390.608 C 237.979 390.767,240.499 391.037,240.604 391.207 C 240.710 391.377,243.407 391.647,246.598 391.807 C 249.789 391.966,252.400 392.255,252.400 392.448 C 252.400 392.642,253.649 392.800,255.176 392.800 C 256.703 392.800,258.053 392.962,258.175 393.159 C 258.297 393.356,260.827 393.648,263.798 393.807 C 266.769 393.966,269.200 394.235,269.200 394.403 C 269.200 394.572,271.720 394.841,274.800 395.000 C 277.880 395.159,280.400 395.428,280.400 395.597 C 280.400 395.765,282.875 396.034,285.900 396.194 C 288.925 396.353,291.580 396.628,291.800 396.805 C 292.210 397.134,293.159 397.238,303.200 398.056 C 306.390 398.315,309.090 398.648,309.200 398.795 C 309.830 399.638,325.864 400.007,361.700 400.004 L 400.000 400.000 400.000 200.000 L 400.000 0.000 359.100 0.054 C 327.304 0.097,316.953 0.233,312.600 0.669 M221.553 98.363 C 222.010 98.652,221.887 99.408,220.853 102.693 C 220.164 104.882,219.600 106.961,219.600 107.313 C 219.600 107.665,219.420 108.064,219.200 108.200 C 218.980 108.336,218.800 108.790,218.800 109.210 C 218.800 109.629,218.550 110.743,218.244 111.686 C 217.938 112.629,217.379 114.480,217.003 115.800 C 216.626 117.120,216.170 118.650,215.989 119.200 C 215.808 119.750,215.273 121.550,214.800 123.200 C 214.327 124.850,213.799 126.650,213.627 127.200 C 213.454 127.750,213.023 129.190,212.669 130.400 C 212.315 131.610,211.569 134.130,211.011 136.000 C 205.228 155.366,202.075 165.976,200.601 171.025 C 199.633 174.338,198.582 177.848,198.264 178.825 C 197.947 179.801,197.401 181.590,197.052 182.800 C 196.703 184.010,195.764 187.160,194.967 189.800 C 194.169 192.440,193.340 195.320,193.124 196.200 C 192.908 197.080,192.592 198.160,192.422 198.600 C 192.251 199.040,191.822 200.390,191.468 201.600 C 191.114 202.810,190.279 205.580,189.612 207.755 C 188.945 209.930,188.400 211.958,188.400 212.261 C 188.400 212.563,188.242 213.123,188.050 213.505 C 187.857 213.887,187.409 215.190,187.055 216.400 C 186.700 217.610,185.759 220.760,184.963 223.400 C 184.167 226.040,183.340 228.920,183.124 229.800 C 182.908 230.680,182.582 231.760,182.400 232.200 C 182.218 232.640,181.892 233.720,181.676 234.600 C 181.460 235.480,180.631 238.360,179.833 241.000 C 179.036 243.640,178.102 246.790,177.759 248.000 C 177.417 249.210,176.985 250.650,176.800 251.200 C 176.615 251.750,176.160 253.280,175.788 254.600 C 175.416 255.920,174.702 258.350,174.201 260.000 C 173.700 261.650,172.921 264.260,172.469 265.800 C 168.674 278.728,165.061 290.877,164.616 292.200 L 164.079 293.800 159.540 293.760 C 152.107 293.694,135.029 292.739,134.631 292.368 C 134.408 292.159,134.547 291.031,134.982 289.511 C 135.378 288.130,136.025 285.830,136.421 284.400 C 136.817 282.970,137.708 279.910,138.401 277.600 C 139.094 275.290,139.830 272.680,140.038 271.800 C 140.245 270.920,140.576 269.840,140.773 269.400 C 140.970 268.960,141.308 267.880,141.524 267.000 C 141.854 265.653,142.739 262.635,145.159 254.600 C 146.661 249.613,149.648 239.098,150.045 237.400 C 150.251 236.520,150.580 235.350,150.776 234.800 C 150.973 234.250,151.691 231.910,152.372 229.600 C 153.053 227.290,153.859 224.590,154.163 223.600 C 154.468 222.610,155.020 220.720,155.390 219.400 C 155.761 218.080,156.204 216.550,156.376 216.000 C 156.809 214.609,157.770 211.335,159.194 206.400 C 159.860 204.090,160.566 201.660,160.763 201.000 C 161.404 198.849,162.349 195.576,165.614 184.200 C 169.641 170.169,170.376 167.648,170.798 166.400 C 170.984 165.850,171.439 164.320,171.809 163.000 C 172.179 161.680,172.631 160.150,172.812 159.600 C 172.994 159.050,173.531 157.160,174.006 155.400 C 174.481 153.640,175.033 151.887,175.235 151.505 C 175.436 151.123,175.600 150.545,175.600 150.219 C 175.600 149.894,175.850 148.857,176.156 147.914 C 176.462 146.971,177.024 145.120,177.404 143.800 C 177.784 142.480,178.614 139.710,179.247 137.645 C 179.881 135.580,180.400 133.565,180.400 133.168 C 180.400 132.772,180.580 132.336,180.800 132.200 C 181.020 132.064,181.200 131.628,181.200 131.232 C 181.200 130.835,181.719 128.820,182.353 126.755 C 182.986 124.690,183.811 121.920,184.185 120.600 C 184.558 119.280,185.015 117.750,185.200 117.200 C 185.385 116.650,185.838 115.120,186.207 113.800 C 187.405 109.518,189.194 103.439,189.739 101.800 L 190.271 100.200 193.635 99.937 C 195.486 99.793,200.420 99.469,204.600 99.219 C 211.741 98.791,220.354 98.176,220.800 98.063 C 220.910 98.035,221.249 98.170,221.553 98.363 M238.954 132.626 C 246.664 135.462,252.891 137.727,257.200 139.263 C 259.070 139.929,260.913 140.638,261.295 140.837 C 261.677 141.037,262.189 141.200,262.434 141.200 C 262.679 141.200,263.446 141.460,264.140 141.777 C 264.833 142.095,267.110 142.932,269.200 143.639 C 271.290 144.345,273.171 145.076,273.380 145.262 C 273.589 145.448,274.039 145.601,274.380 145.602 C 274.721 145.604,275.516 145.874,276.146 146.202 C 276.776 146.531,277.469 146.800,277.685 146.800 C 277.902 146.800,278.646 147.048,279.340 147.351 C 280.033 147.654,281.410 148.178,282.400 148.515 C 284.469 149.219,295.911 153.387,298.000 154.197 C 298.770 154.496,300.660 155.188,302.200 155.736 C 306.914 157.412,318.552 161.661,319.400 162.017 C 319.840 162.201,323.800 163.637,328.200 165.209 C 336.770 168.269,347.313 172.108,349.600 173.000 C 350.807 173.471,361.063 177.225,364.600 178.491 C 365.260 178.727,366.340 179.143,367.000 179.414 C 367.660 179.686,369.370 180.307,370.800 180.794 C 373.426 181.687,373.715 181.794,376.600 182.940 C 377.480 183.289,379.223 183.909,380.473 184.316 C 384.306 185.567,384.001 184.088,383.994 201.349 C 383.987 218.271,384.151 217.208,381.400 218.179 C 380.300 218.567,379.040 219.026,378.600 219.198 C 378.160 219.371,376.180 220.094,374.200 220.806 C 372.220 221.518,370.033 222.348,369.340 222.650 C 368.646 222.953,367.934 223.200,367.757 223.200 C 367.579 223.200,365.536 223.904,363.217 224.765 C 353.265 228.457,350.671 229.403,344.800 231.482 C 335.116 234.912,330.297 236.647,329.074 237.143 C 328.455 237.394,327.800 237.600,327.620 237.600 C 327.439 237.600,326.776 237.869,326.146 238.198 C 325.516 238.526,324.696 238.796,324.324 238.798 C 323.952 238.799,323.536 238.980,323.400 239.200 C 323.264 239.420,322.876 239.600,322.537 239.600 C 322.198 239.600,321.354 239.848,320.660 240.152 C 319.967 240.456,317.780 241.282,315.800 241.988 C 309.225 244.332,307.061 245.117,299.400 247.937 C 295.220 249.475,290.710 251.099,289.378 251.545 C 288.046 251.991,284.716 253.190,281.978 254.211 C 279.240 255.231,275.920 256.427,274.600 256.868 C 273.280 257.309,271.633 257.925,270.940 258.235 C 270.246 258.546,269.402 258.800,269.063 258.800 C 268.724 258.800,268.345 258.966,268.219 259.169 C 268.094 259.372,267.414 259.665,266.709 259.820 C 266.003 259.975,265.150 260.256,264.813 260.445 C 264.476 260.634,263.110 261.141,261.778 261.572 C 260.446 262.003,257.116 263.195,254.378 264.222 C 251.640 265.248,248.950 266.231,248.400 266.407 C 247.850 266.583,243.923 268.003,239.673 269.563 C 235.423 271.123,231.596 272.400,231.169 272.400 C 230.410 272.400,230.394 271.994,230.496 254.748 L 230.600 237.096 241.000 233.186 C 246.720 231.036,253.470 228.517,256.000 227.588 C 258.530 226.660,261.140 225.669,261.800 225.386 C 262.460 225.103,265.790 223.852,269.200 222.606 C 272.610 221.359,281.340 218.117,288.600 215.400 C 295.860 212.683,305.310 209.177,309.600 207.609 C 313.890 206.040,318.030 204.510,318.800 204.208 C 319.570 203.906,321.506 203.180,323.102 202.594 C 325.659 201.655,326.574 200.800,325.022 200.800 C 324.730 200.800,323.976 200.531,323.346 200.202 C 322.716 199.874,321.896 199.604,321.524 199.602 C 321.152 199.601,320.736 199.420,320.600 199.200 C 320.464 198.980,320.048 198.799,319.676 198.798 C 319.304 198.796,318.484 198.526,317.854 198.198 C 317.224 197.869,316.531 197.600,316.315 197.600 C 316.098 197.600,315.354 197.346,314.660 197.035 C 313.967 196.725,309.890 195.183,305.600 193.609 C 301.310 192.035,297.170 190.499,296.400 190.195 C 295.630 189.892,291.490 188.366,287.200 186.804 C 282.910 185.242,279.040 183.810,278.600 183.623 C 278.160 183.436,276.180 182.702,274.200 181.991 C 272.220 181.280,270.429 180.542,270.220 180.350 C 270.011 180.157,269.588 180.000,269.280 180.000 C 268.973 180.000,268.154 179.752,267.460 179.448 C 266.767 179.144,264.580 178.318,262.600 177.611 C 256.870 175.565,250.304 173.144,249.000 172.596 C 248.340 172.319,245.010 171.071,241.600 169.822 C 234.718 167.303,232.632 166.506,231.300 165.885 L 230.400 165.465 230.400 147.682 L 230.400 129.900 231.654 130.151 C 232.343 130.289,235.628 131.402,238.954 132.626 M125.905 150.723 C 126.007 166.505,125.883 168.400,124.746 168.400 C 124.512 168.400,123.754 168.657,123.060 168.970 C 122.367 169.284,120.720 170.019,119.400 170.605 C 118.080 171.190,116.460 171.910,115.800 172.205 C 111.090 174.307,109.694 174.919,107.490 175.845 C 106.121 176.421,104.280 177.218,103.400 177.616 C 99.846 179.223,97.059 180.449,94.777 181.410 C 93.455 181.966,91.216 182.952,89.800 183.600 C 88.384 184.248,86.095 185.254,84.713 185.836 C 83.331 186.417,81.480 187.218,80.600 187.616 C 77.046 189.223,74.259 190.449,71.977 191.410 C 70.655 191.966,68.416 192.952,67.000 193.600 C 65.584 194.248,63.345 195.234,62.023 195.790 C 60.701 196.347,58.580 197.265,57.310 197.831 C 56.039 198.397,54.370 199.131,53.600 199.462 C 52.830 199.794,51.696 200.294,51.080 200.573 L 49.960 201.082 50.880 201.666 C 51.386 201.987,53.420 202.937,55.400 203.777 C 57.380 204.616,60.318 205.910,61.929 206.652 C 63.540 207.393,64.923 208.000,65.001 208.000 C 65.080 208.000,66.372 208.551,67.872 209.225 C 69.372 209.899,70.960 210.608,71.400 210.800 C 71.840 210.992,73.428 211.701,74.928 212.375 C 76.428 213.049,77.720 213.600,77.799 213.600 C 77.877 213.600,79.260 214.209,80.871 214.953 C 82.482 215.697,84.970 216.795,86.400 217.393 C 87.830 217.991,90.260 219.080,91.800 219.813 C 93.340 220.546,95.500 221.499,96.600 221.930 C 98.604 222.716,101.314 223.910,105.800 225.982 C 108.842 227.388,110.404 228.075,113.400 229.326 C 116.208 230.498,122.390 233.310,124.400 234.329 L 125.800 235.039 125.911 250.819 C 125.973 259.499,125.925 267.002,125.806 267.492 L 125.589 268.385 123.494 267.438 C 121.228 266.414,114.152 263.042,105.711 258.964 C 102.792 257.554,100.327 256.400,100.234 256.400 C 100.141 256.400,97.395 255.119,94.132 253.554 C 82.757 248.097,79.170 246.400,79.008 246.400 C 78.918 246.400,76.089 245.071,72.722 243.448 C 61.668 238.117,55.533 235.200,55.376 235.200 C 55.219 235.200,49.462 232.466,39.699 227.757 C 36.784 226.351,34.326 225.200,34.237 225.200 C 34.149 225.200,31.494 223.966,28.338 222.457 C 25.182 220.949,20.800 218.861,18.600 217.817 C 16.400 216.773,13.655 215.458,12.500 214.894 L 10.400 213.870 10.400 201.154 L 10.400 188.438 14.700 186.377 C 17.065 185.244,20.260 183.721,21.800 182.993 C 23.340 182.266,26.490 180.772,28.800 179.675 C 41.357 173.709,46.378 171.336,51.400 168.993 C 53.160 168.172,56.490 166.601,58.800 165.502 C 61.110 164.404,64.710 162.697,66.800 161.708 C 68.890 160.720,72.040 159.230,73.800 158.397 C 75.560 157.564,78.350 156.250,80.000 155.477 C 81.650 154.704,85.610 152.823,88.800 151.298 C 91.990 149.772,95.320 148.198,96.200 147.800 C 97.080 147.402,100.050 146.000,102.800 144.686 C 113.280 139.675,117.891 137.497,123.000 135.144 C 125.975 133.774,125.788 132.769,125.905 150.723 " stroke="none" fill="#040404" fill-rule="evenodd"></path><path id="path2" d="M215.500 98.689 C 216.215 98.778,217.385 98.778,218.100 98.689 C 218.815 98.601,218.230 98.528,216.800 98.528 C 215.370 98.528,214.785 98.601,215.500 98.689 M209.100 99.082 C 209.595 99.178,210.405 99.178,210.900 99.082 C 211.395 98.987,210.990 98.909,210.000 98.909 C 209.010 98.909,208.605 98.987,209.100 99.082 M201.100 99.489 C 201.815 99.578,202.985 99.578,203.700 99.489 C 204.415 99.401,203.830 99.328,202.400 99.328 C 200.970 99.328,200.385 99.401,201.100 99.489 M196.905 99.887 C 197.514 99.979,198.414 99.977,198.905 99.882 C 199.397 99.787,198.900 99.711,197.800 99.714 C 196.700 99.717,196.297 99.795,196.905 99.887 M187.240 109.840 C 187.010 110.673,186.894 111.427,186.982 111.515 C 187.070 111.603,187.330 110.993,187.560 110.160 C 187.790 109.327,187.906 108.573,187.818 108.485 C 187.730 108.397,187.470 109.007,187.240 109.840 M212.629 129.429 C 212.481 130.015,212.438 130.572,212.532 130.666 C 212.627 130.760,212.824 130.358,212.971 129.771 C 213.119 129.185,213.162 128.628,213.068 128.534 C 212.973 128.440,212.776 128.842,212.629 129.429 M230.584 147.800 C 230.584 157.700,230.636 161.693,230.700 156.673 C 230.763 151.653,230.763 143.553,230.700 138.673 C 230.636 133.793,230.584 137.900,230.584 147.800 M211.429 133.429 C 211.281 134.015,211.238 134.572,211.332 134.666 C 211.427 134.760,211.624 134.358,211.771 133.771 C 211.919 133.185,211.962 132.628,211.868 132.534 C 211.773 132.440,211.576 132.842,211.429 133.429 M125.783 151.000 C 125.783 160.020,125.835 163.767,125.899 159.327 C 125.964 154.887,125.964 147.507,125.900 142.927 C 125.835 138.347,125.783 141.980,125.783 151.000 M254.000 138.333 C 254.330 138.536,255.050 138.824,255.600 138.971 C 256.295 139.157,256.417 139.125,256.000 138.867 C 255.670 138.664,254.950 138.376,254.400 138.229 C 253.705 138.043,253.583 138.075,254.000 138.333 M178.229 140.629 C 178.081 141.215,178.038 141.772,178.132 141.866 C 178.227 141.960,178.424 141.558,178.571 140.971 C 178.719 140.385,178.762 139.828,178.668 139.734 C 178.573 139.640,178.376 140.042,178.229 140.629 M262.400 141.334 C 262.400 141.437,262.981 141.724,263.691 141.972 C 264.401 142.219,264.806 142.257,264.591 142.056 C 264.135 141.629,262.400 141.058,262.400 141.334 M208.036 144.836 C 207.766 145.739,207.618 146.552,207.708 146.642 C 207.798 146.732,208.093 146.066,208.364 145.164 C 208.634 144.261,208.782 143.448,208.692 143.358 C 208.602 143.268,208.307 143.934,208.036 144.836 M270.000 144.135 C 270.000 144.240,270.810 144.601,271.800 144.938 C 273.609 145.554,274.383 145.473,272.700 144.844 C 271.007 144.210,270.000 143.946,270.000 144.135 M274.400 145.734 C 274.400 145.837,274.981 146.124,275.691 146.372 C 276.401 146.619,276.806 146.657,276.591 146.456 C 276.135 146.029,274.400 145.458,274.400 145.734 M176.040 148.240 C 175.810 149.073,175.694 149.827,175.782 149.915 C 175.870 150.003,176.130 149.393,176.360 148.560 C 176.590 147.727,176.706 146.973,176.618 146.885 C 176.530 146.797,176.270 147.407,176.040 148.240 M207.029 148.229 C 206.881 148.815,206.838 149.372,206.932 149.466 C 207.027 149.560,207.224 149.158,207.371 148.571 C 207.519 147.985,207.562 147.428,207.468 147.334 C 207.373 147.240,207.176 147.642,207.029 148.229 M94.400 148.600 C 93.850 148.914,93.580 149.172,93.800 149.172 C 94.020 149.172,94.650 148.914,95.200 148.600 C 95.750 148.286,96.020 148.028,95.800 148.028 C 95.580 148.028,94.950 148.286,94.400 148.600 M204.629 156.229 C 204.481 156.815,204.438 157.372,204.532 157.466 C 204.627 157.560,204.824 157.158,204.971 156.571 C 205.119 155.985,205.162 155.428,205.068 155.334 C 204.973 155.240,204.776 155.642,204.629 156.229 M203.429 160.229 C 203.281 160.815,203.238 161.372,203.332 161.466 C 203.427 161.560,203.624 161.158,203.771 160.571 C 203.919 159.985,203.962 159.428,203.868 159.334 C 203.773 159.240,203.576 159.642,203.429 160.229 M324.000 163.933 C 324.330 164.136,325.050 164.424,325.600 164.571 C 326.295 164.757,326.417 164.725,326.000 164.467 C 325.670 164.264,324.950 163.976,324.400 163.829 C 323.705 163.643,323.583 163.675,324.000 163.933 M238.800 168.733 C 239.130 168.936,239.850 169.224,240.400 169.371 C 241.095 169.557,241.217 169.525,240.800 169.267 C 240.470 169.064,239.750 168.776,239.200 168.629 C 238.505 168.443,238.383 168.475,238.800 168.733 M338.400 169.133 C 338.730 169.336,339.450 169.624,340.000 169.771 C 340.695 169.957,340.817 169.925,340.400 169.667 C 340.070 169.464,339.350 169.176,338.800 169.029 C 338.105 168.843,337.983 168.875,338.400 169.133 M169.240 171.440 C 169.010 172.273,168.894 173.027,168.982 173.115 C 169.070 173.203,169.330 172.593,169.560 171.760 C 169.790 170.927,169.906 170.173,169.818 170.085 C 169.730 169.997,169.470 170.607,169.240 171.440 M341.600 170.333 C 341.930 170.536,342.650 170.824,343.200 170.971 C 343.895 171.157,344.017 171.125,343.600 170.867 C 343.270 170.664,342.550 170.376,342.000 170.229 C 341.305 170.043,341.183 170.075,341.600 170.333 M245.200 171.133 C 245.530 171.336,246.250 171.624,246.800 171.771 C 247.495 171.957,247.617 171.925,247.200 171.667 C 246.870 171.464,246.150 171.176,245.600 171.029 C 244.905 170.843,244.783 170.875,245.200 171.133 M248.400 172.231 C 248.400 172.501,250.478 173.256,250.676 173.057 C 250.767 172.967,250.292 172.701,249.620 172.467 C 248.949 172.233,248.400 172.127,248.400 172.231 M42.800 173.000 C 42.250 173.314,41.980 173.572,42.200 173.572 C 42.420 173.572,43.050 173.314,43.600 173.000 C 44.150 172.686,44.420 172.428,44.200 172.428 C 43.980 172.428,43.350 172.686,42.800 173.000 M251.600 173.533 C 251.930 173.736,252.650 174.024,253.200 174.171 C 253.895 174.357,254.017 174.325,253.600 174.067 C 253.270 173.864,252.550 173.576,252.000 173.429 C 251.305 173.243,251.183 173.275,251.600 173.533 M254.800 174.733 C 255.130 174.936,255.850 175.224,256.400 175.371 C 257.095 175.557,257.217 175.525,256.800 175.267 C 256.470 175.064,255.750 174.776,255.200 174.629 C 254.505 174.443,254.383 174.475,254.800 174.733 M106.800 175.800 C 106.250 176.114,105.980 176.372,106.200 176.372 C 106.420 176.372,107.050 176.114,107.600 175.800 C 108.150 175.486,108.420 175.228,108.200 175.228 C 107.980 175.228,107.350 175.486,106.800 175.800 M167.029 179.029 C 166.881 179.615,166.838 180.172,166.932 180.266 C 167.027 180.360,167.224 179.958,167.371 179.371 C 167.519 178.785,167.562 178.228,167.468 178.134 C 167.373 178.040,167.176 178.442,167.029 179.029 M166.229 181.829 C 166.081 182.415,166.038 182.972,166.132 183.066 C 166.227 183.160,166.424 182.758,166.571 182.171 C 166.719 181.585,166.762 181.028,166.668 180.934 C 166.573 180.840,166.376 181.242,166.229 181.829 M272.000 181.133 C 272.330 181.336,273.050 181.624,273.600 181.771 C 274.295 181.957,274.417 181.925,274.000 181.667 C 273.670 181.464,272.950 181.176,272.400 181.029 C 271.705 180.843,271.583 180.875,272.000 181.133 M275.200 182.333 C 275.530 182.536,276.250 182.824,276.800 182.971 C 277.495 183.157,277.617 183.125,277.200 182.867 C 276.870 182.664,276.150 182.376,275.600 182.229 C 274.905 182.043,274.783 182.075,275.200 182.333 M278.400 183.431 C 278.400 183.701,280.478 184.456,280.676 184.257 C 280.767 184.167,280.292 183.901,279.620 183.667 C 278.949 183.433,278.400 183.327,278.400 183.431 M382.400 185.318 L 383.400 185.823 383.505 201.165 C 383.580 212.156,383.481 216.661,383.156 217.053 C 382.875 217.392,382.857 217.600,383.108 217.600 C 383.918 217.600,384.000 216.090,384.000 201.229 C 384.000 185.054,383.967 184.785,381.969 184.806 C 381.656 184.809,381.850 185.039,382.400 185.318 M71.200 191.400 C 70.650 191.714,70.380 191.972,70.600 191.972 C 70.820 191.972,71.450 191.714,72.000 191.400 C 72.550 191.086,72.820 190.828,72.600 190.828 C 72.380 190.828,71.750 191.086,71.200 191.400 M162.629 194.229 C 162.481 194.815,162.438 195.372,162.532 195.466 C 162.627 195.560,162.824 195.158,162.971 194.571 C 163.119 193.985,163.162 193.428,163.068 193.334 C 162.973 193.240,162.776 193.642,162.629 194.229 M61.200 195.800 C 60.650 196.114,60.380 196.372,60.600 196.372 C 60.820 196.372,61.450 196.114,62.000 195.800 C 62.550 195.486,62.820 195.228,62.600 195.228 C 62.380 195.228,61.750 195.486,61.200 195.800 M314.000 196.631 C 314.000 196.901,316.078 197.656,316.276 197.457 C 316.367 197.367,315.892 197.101,315.220 196.867 C 314.549 196.633,314.000 196.527,314.000 196.631 M317.200 197.831 C 317.200 198.101,319.278 198.856,319.476 198.657 C 319.567 198.567,319.092 198.301,318.420 198.067 C 317.749 197.833,317.200 197.727,317.200 197.831 M49.600 201.127 C 49.600 201.316,50.050 201.677,50.600 201.927 C 51.150 202.178,51.600 202.317,51.600 202.237 C 51.600 202.157,51.150 201.797,50.600 201.437 C 50.050 201.076,49.600 200.937,49.600 201.127 M16.800 217.000 C 17.350 217.314,17.980 217.572,18.200 217.572 C 18.420 217.572,18.150 217.314,17.600 217.000 C 17.050 216.686,16.420 216.428,16.200 216.428 C 15.980 216.428,16.250 216.686,16.800 217.000 M380.600 218.214 C 379.600 218.696,379.566 218.751,380.400 218.548 C 381.533 218.271,382.807 217.621,382.200 217.630 C 381.980 217.633,381.260 217.896,380.600 218.214 M371.800 221.414 C 370.800 221.896,370.766 221.951,371.600 221.748 C 372.733 221.471,374.007 220.821,373.400 220.830 C 373.180 220.833,372.460 221.096,371.800 221.414 M368.600 222.614 C 367.595 223.098,367.563 223.153,368.400 222.951 C 368.950 222.819,369.571 222.550,369.780 222.355 C 370.298 221.871,370.014 221.933,368.600 222.614 M268.200 223.014 C 267.200 223.496,267.166 223.551,268.000 223.348 C 269.133 223.071,270.407 222.421,269.800 222.430 C 269.580 222.433,268.860 222.696,268.200 223.014 M32.800 224.600 C 33.350 224.914,33.980 225.172,34.200 225.172 C 34.420 225.172,34.150 224.914,33.600 224.600 C 33.050 224.286,32.420 224.028,32.200 224.028 C 31.980 224.028,32.250 224.286,32.800 224.600 M361.800 225.014 C 360.800 225.496,360.766 225.551,361.600 225.348 C 362.733 225.071,364.007 224.421,363.400 224.430 C 363.180 224.433,362.460 224.696,361.800 225.014 M112.800 229.400 C 113.350 229.714,113.980 229.972,114.200 229.972 C 114.420 229.972,114.150 229.714,113.600 229.400 C 113.050 229.086,112.420 228.828,112.200 228.828 C 111.980 228.828,112.250 229.086,112.800 229.400 M348.675 229.673 C 347.396 230.119,346.420 230.553,346.506 230.639 C 346.687 230.821,351.600 229.205,351.600 228.963 C 351.600 228.702,351.144 228.813,348.675 229.673 M151.600 232.000 C 151.351 232.924,151.226 233.759,151.321 233.855 C 151.417 233.950,151.690 233.263,151.927 232.327 C 152.165 231.391,152.290 230.557,152.206 230.473 C 152.122 230.388,151.849 231.076,151.600 232.000 M150.400 236.000 C 150.151 236.924,150.026 237.759,150.121 237.855 C 150.217 237.950,150.490 237.263,150.727 236.327 C 150.965 235.391,151.090 234.557,151.006 234.473 C 150.922 234.388,150.649 235.076,150.400 236.000 M125.783 251.400 C 125.783 260.420,125.835 264.167,125.899 259.727 C 125.964 255.287,125.964 247.907,125.900 243.327 C 125.835 238.747,125.783 242.380,125.783 251.400 M328.600 237.014 C 327.595 237.498,327.563 237.553,328.400 237.351 C 328.950 237.219,329.571 236.950,329.780 236.755 C 330.298 236.271,330.014 236.333,328.600 237.014 M230.583 237.300 C 230.478 237.575,230.438 245.630,230.496 255.200 L 230.600 272.600 230.800 254.700 C 230.910 244.855,230.949 236.800,230.887 236.800 C 230.826 236.800,230.689 237.025,230.583 237.300 M325.400 238.214 C 324.395 238.698,324.363 238.753,325.200 238.551 C 325.750 238.419,326.371 238.150,326.580 237.955 C 327.098 237.471,326.814 237.533,325.400 238.214 M76.800 245.400 C 77.790 245.930,78.780 246.364,79.000 246.364 C 79.220 246.364,78.590 245.930,77.600 245.400 C 76.610 244.870,75.620 244.436,75.400 244.436 C 75.180 244.436,75.810 244.870,76.800 245.400 M294.600 249.414 C 293.600 249.896,293.566 249.951,294.400 249.748 C 295.533 249.471,296.807 248.821,296.200 248.830 C 295.980 248.833,295.260 249.096,294.600 249.414 M289.000 251.414 C 288.000 251.896,287.966 251.951,288.800 251.748 C 289.933 251.471,291.207 250.821,290.600 250.830 C 290.380 250.833,289.660 251.096,289.000 251.414 M98.800 255.800 C 99.350 256.114,99.980 256.372,100.200 256.372 C 100.420 256.372,100.150 256.114,99.600 255.800 C 99.050 255.486,98.420 255.228,98.200 255.228 C 97.980 255.228,98.250 255.486,98.800 255.800 M174.629 257.429 C 174.481 258.015,174.438 258.572,174.532 258.666 C 174.627 258.760,174.824 258.358,174.971 257.771 C 175.119 257.185,175.162 256.628,175.068 256.534 C 174.973 256.440,174.776 256.842,174.629 257.429 M273.400 257.014 C 272.400 257.496,272.366 257.551,273.200 257.348 C 274.333 257.071,275.607 256.421,275.000 256.430 C 274.780 256.433,274.060 256.696,273.400 257.014 M267.000 259.414 C 265.995 259.898,265.963 259.953,266.800 259.751 C 267.350 259.619,267.971 259.350,268.180 259.155 C 268.698 258.671,268.414 258.733,267.000 259.414 M121.600 266.600 C 122.590 267.130,123.580 267.564,123.800 267.564 C 124.020 267.564,123.390 267.130,122.400 266.600 C 121.410 266.070,120.420 265.636,120.200 265.636 C 119.980 265.636,120.610 266.070,121.600 266.600 M171.029 269.429 C 170.881 270.015,170.838 270.572,170.932 270.666 C 171.027 270.760,171.224 270.358,171.371 269.771 C 171.519 269.185,171.562 268.628,171.468 268.534 C 171.373 268.440,171.176 268.842,171.029 269.429 M140.679 269.500 C 140.369 270.053,139.932 272.202,140.180 271.954 C 140.477 271.656,141.205 269.200,140.996 269.200 C 140.914 269.200,140.771 269.335,140.679 269.500 M233.800 271.414 C 232.800 271.896,232.766 271.951,233.600 271.748 C 234.733 271.471,236.007 270.821,235.400 270.830 C 235.180 270.833,234.460 271.096,233.800 271.414 M170.229 272.229 C 170.081 272.815,170.038 273.372,170.132 273.466 C 170.227 273.560,170.424 273.158,170.571 272.571 C 170.719 271.985,170.762 271.428,170.668 271.334 C 170.573 271.240,170.376 271.642,170.229 272.229 M169.029 276.229 C 168.881 276.815,168.838 277.372,168.932 277.466 C 169.027 277.560,169.224 277.158,169.371 276.571 C 169.519 275.985,169.562 275.428,169.468 275.334 C 169.373 275.240,169.176 275.642,169.029 276.229 M138.229 277.829 C 138.081 278.415,138.038 278.972,138.132 279.066 C 138.227 279.160,138.424 278.758,138.571 278.171 C 138.719 277.585,138.762 277.028,138.668 276.934 C 138.573 276.840,138.376 277.242,138.229 277.829 M168.036 279.636 C 167.766 280.539,167.618 281.352,167.708 281.442 C 167.798 281.532,168.093 280.866,168.364 279.964 C 168.634 279.061,168.782 278.248,168.692 278.158 C 168.602 278.068,168.307 278.734,168.036 279.636 M167.029 283.029 C 166.881 283.615,166.838 284.172,166.932 284.266 C 167.027 284.360,167.224 283.958,167.371 283.371 C 167.519 282.785,167.562 282.228,167.468 282.134 C 167.373 282.040,167.176 282.442,167.029 283.029 M165.829 287.029 C 165.681 287.615,165.638 288.172,165.732 288.266 C 165.827 288.360,166.024 287.958,166.171 287.371 C 166.319 286.785,166.362 286.228,166.268 286.134 C 166.173 286.040,165.976 286.442,165.829 287.029 M135.029 289.029 C 134.881 289.615,134.838 290.172,134.932 290.266 C 135.027 290.360,135.224 289.958,135.371 289.371 C 135.519 288.785,135.562 288.228,135.468 288.134 C 135.373 288.040,135.176 288.442,135.029 289.029 M134.758 292.520 C 134.935 292.695,136.321 292.784,137.840 292.716 L 140.600 292.592 137.518 292.396 C 135.823 292.288,134.581 292.344,134.758 292.520 M143.105 293.083 C 143.602 293.179,144.322 293.175,144.705 293.075 C 145.087 292.975,144.680 292.896,143.800 292.901 C 142.920 292.905,142.607 292.987,143.105 293.083 M152.900 293.476 C 153.285 293.576,153.915 293.576,154.300 293.476 C 154.685 293.375,154.370 293.293,153.600 293.293 C 152.830 293.293,152.515 293.375,152.900 293.476 M156.291 293.889 C 157.001 293.977,158.261 293.979,159.091 293.892 C 159.921 293.805,159.340 293.733,157.800 293.731 C 156.260 293.729,155.581 293.800,156.291 293.889 " stroke="none" fill="#47245a" fill-rule="evenodd"></path><path id="path3" d="M213.100 99.082 C 213.595 99.178,214.405 99.178,214.900 99.082 C 215.395 98.987,214.990 98.909,214.000 98.909 C 213.010 98.909,212.605 98.987,213.100 99.082 M207.500 99.489 C 208.215 99.578,209.385 99.578,210.100 99.489 C 210.815 99.401,210.230 99.328,208.800 99.328 C 207.370 99.328,206.785 99.401,207.500 99.489 M201.105 99.883 C 201.602 99.979,202.322 99.975,202.705 99.875 C 203.087 99.775,202.680 99.696,201.800 99.701 C 200.920 99.705,200.607 99.787,201.105 99.883 M192.505 100.287 C 193.114 100.379,194.014 100.377,194.505 100.282 C 194.997 100.187,194.500 100.111,193.400 100.114 C 192.300 100.117,191.897 100.195,192.505 100.287 M217.240 112.640 C 217.010 113.473,216.894 114.227,216.982 114.315 C 217.070 114.403,217.330 113.793,217.560 112.960 C 217.790 112.127,217.906 111.373,217.818 111.285 C 217.730 111.197,217.470 111.807,217.240 112.640 M182.800 126.103 C 182.800 126.159,182.623 126.822,182.407 127.576 C 182.191 128.329,182.168 128.778,182.355 128.573 C 182.764 128.126,183.303 126.000,183.008 126.000 C 182.893 126.000,182.800 126.046,182.800 126.103 M230.896 148.100 L 230.991 165.800 231.100 148.329 C 231.201 132.119,231.259 130.844,231.904 130.675 C 232.423 130.539,232.371 130.481,231.700 130.446 L 230.800 130.400 230.896 148.100 M125.381 151.000 C 125.381 159.360,125.434 162.837,125.499 158.726 C 125.564 154.616,125.564 147.776,125.500 143.526 C 125.435 139.277,125.382 142.640,125.381 151.000 M255.200 139.133 C 255.530 139.336,256.250 139.624,256.800 139.771 C 257.495 139.957,257.617 139.925,257.200 139.667 C 256.870 139.464,256.150 139.176,255.600 139.029 C 254.905 138.843,254.783 138.875,255.200 139.133 M209.029 140.229 C 208.881 140.815,208.838 141.372,208.932 141.466 C 209.027 141.560,209.224 141.158,209.371 140.571 C 209.519 139.985,209.562 139.428,209.468 139.334 C 209.373 139.240,209.176 139.642,209.029 140.229 M111.200 141.000 C 110.210 141.530,109.580 141.964,109.800 141.964 C 110.020 141.964,111.010 141.530,112.000 141.000 C 112.990 140.470,113.620 140.036,113.400 140.036 C 113.180 140.036,112.190 140.470,111.200 141.000 M267.200 143.533 C 267.530 143.736,268.250 144.024,268.800 144.171 C 269.495 144.357,269.617 144.325,269.200 144.067 C 268.870 143.864,268.150 143.576,267.600 143.429 C 266.905 143.243,266.783 143.275,267.200 143.533 M279.200 147.831 C 279.200 148.101,281.278 148.856,281.476 148.657 C 281.567 148.567,281.092 148.301,280.420 148.067 C 279.749 147.833,279.200 147.727,279.200 147.831 M205.829 151.029 C 205.681 151.615,205.638 152.172,205.732 152.266 C 205.827 152.360,206.024 151.958,206.171 151.371 C 206.319 150.785,206.362 150.228,206.268 150.134 C 206.173 150.040,205.976 150.442,205.829 151.029 M89.200 151.400 C 88.650 151.714,88.380 151.972,88.600 151.972 C 88.820 151.972,89.450 151.714,90.000 151.400 C 90.550 151.086,90.820 150.828,90.600 150.828 C 90.380 150.828,89.750 151.086,89.200 151.400 M318.400 162.134 C 318.400 162.237,318.981 162.524,319.691 162.772 C 320.401 163.019,320.806 163.057,320.591 162.856 C 320.135 162.429,318.400 161.858,318.400 162.134 M322.000 163.431 C 322.000 163.701,324.078 164.456,324.276 164.257 C 324.367 164.167,323.892 163.901,323.220 163.667 C 322.549 163.433,322.000 163.327,322.000 163.431 M342.800 171.133 C 343.130 171.336,343.850 171.624,344.400 171.771 C 345.095 171.957,345.217 171.925,344.800 171.667 C 344.470 171.464,343.750 171.176,343.200 171.029 C 342.505 170.843,342.383 170.875,342.800 171.133 M169.029 173.429 C 168.881 174.015,168.838 174.572,168.932 174.666 C 169.027 174.760,169.224 174.358,169.371 173.771 C 169.519 173.185,169.562 172.628,169.468 172.534 C 169.373 172.440,169.176 172.842,169.029 173.429 M30.800 179.000 C 30.250 179.314,29.980 179.572,30.200 179.572 C 30.420 179.572,31.050 179.314,31.600 179.000 C 32.150 178.686,32.420 178.428,32.200 178.428 C 31.980 178.428,31.350 178.686,30.800 179.000 M23.200 182.600 C 22.650 182.914,22.380 183.172,22.600 183.172 C 22.820 183.172,23.450 182.914,24.000 182.600 C 24.550 182.286,24.820 182.028,24.600 182.028 C 24.380 182.028,23.750 182.286,23.200 182.600 M282.400 184.534 C 282.400 184.637,282.981 184.924,283.691 185.172 C 284.401 185.419,284.806 185.457,284.591 185.256 C 284.135 184.829,282.400 184.258,282.400 184.534 M383.000 201.400 C 383.000 210.048,383.135 217.040,383.300 216.938 C 383.465 216.836,383.600 209.844,383.600 201.400 C 383.600 192.956,383.465 185.964,383.300 185.862 C 383.135 185.760,383.000 192.752,383.000 201.400 M312.400 195.734 C 312.400 195.837,312.981 196.124,313.691 196.372 C 314.401 196.619,314.806 196.657,314.591 196.456 C 314.135 196.029,312.400 195.458,312.400 195.734 M316.000 197.133 C 316.330 197.336,317.050 197.624,317.600 197.771 C 318.295 197.957,318.417 197.925,318.000 197.667 C 317.670 197.464,316.950 197.176,316.400 197.029 C 315.705 196.843,315.583 196.875,316.000 197.133 M319.200 198.333 C 319.530 198.536,320.250 198.824,320.800 198.971 C 321.495 199.157,321.617 199.125,321.200 198.867 C 320.870 198.664,320.150 198.376,319.600 198.229 C 318.905 198.043,318.783 198.075,319.200 198.333 M317.700 204.812 C 316.361 205.351,316.611 205.624,318.000 205.140 C 318.660 204.910,319.200 204.649,319.200 204.561 C 319.200 204.324,318.713 204.405,317.700 204.812 M309.000 208.214 C 308.000 208.696,307.966 208.751,308.800 208.548 C 309.933 208.271,311.207 207.621,310.600 207.630 C 310.380 207.633,309.660 207.896,309.000 208.214 M348.600 229.414 C 347.600 229.896,347.566 229.951,348.400 229.748 C 349.533 229.471,350.807 228.821,350.200 228.830 C 349.980 228.833,349.260 229.096,348.600 229.414 M125.382 251.400 C 125.382 259.980,125.435 263.433,125.500 259.074 C 125.564 254.714,125.564 247.694,125.499 243.474 C 125.435 239.253,125.382 242.820,125.382 251.400 M326.600 237.414 C 325.600 237.896,325.566 237.951,326.400 237.748 C 327.533 237.471,328.807 236.821,328.200 236.830 C 327.980 236.833,327.260 237.096,326.600 237.414 M64.000 239.000 C 64.990 239.530,65.980 239.964,66.200 239.964 C 66.420 239.964,65.790 239.530,64.800 239.000 C 63.810 238.470,62.820 238.036,62.600 238.036 C 62.380 238.036,63.010 238.470,64.000 239.000 M323.400 238.614 C 322.400 239.096,322.366 239.151,323.200 238.948 C 324.333 238.671,325.607 238.021,325.000 238.030 C 324.780 238.033,324.060 238.296,323.400 238.614 M230.983 254.800 C 230.983 263.930,231.035 267.665,231.100 263.100 C 231.164 258.535,231.164 251.065,231.100 246.500 C 231.035 241.935,230.983 245.670,230.983 254.800 M72.400 243.000 C 72.950 243.314,73.580 243.572,73.800 243.572 C 74.020 243.572,73.750 243.314,73.200 243.000 C 72.650 242.686,72.020 242.428,71.800 242.428 C 71.580 242.428,71.850 242.686,72.400 243.000 M299.000 247.414 C 298.000 247.896,297.966 247.951,298.800 247.748 C 299.933 247.471,301.207 246.821,300.600 246.830 C 300.380 246.833,299.660 247.096,299.000 247.414 M290.500 250.412 C 289.161 250.951,289.411 251.224,290.800 250.740 C 291.460 250.510,292.000 250.249,292.000 250.161 C 292.000 249.924,291.513 250.005,290.500 250.412 M268.200 258.614 C 267.200 259.096,267.166 259.151,268.000 258.948 C 269.133 258.671,270.407 258.021,269.800 258.030 C 269.580 258.033,268.860 258.296,268.200 258.614 M114.800 263.000 C 115.350 263.314,115.980 263.572,116.200 263.572 C 116.420 263.572,116.150 263.314,115.600 263.000 C 115.050 262.686,114.420 262.428,114.200 262.428 C 113.980 262.428,114.250 262.686,114.800 263.000 M142.440 264.640 C 142.210 265.473,142.094 266.227,142.182 266.315 C 142.270 266.403,142.530 265.793,142.760 264.960 C 142.990 264.127,143.106 263.373,143.018 263.285 C 142.930 263.197,142.670 263.807,142.440 264.640 M134.832 291.500 C 134.810 292.105,135.030 292.398,135.500 292.394 C 135.932 292.390,136.031 292.275,135.760 292.094 C 135.518 291.932,135.217 291.530,135.092 291.200 C 134.939 290.799,134.853 290.899,134.832 291.500 M142.905 292.687 C 143.514 292.779,144.414 292.777,144.905 292.682 C 145.397 292.587,144.900 292.511,143.800 292.514 C 142.700 292.517,142.297 292.595,142.905 292.687 M147.305 293.087 C 147.914 293.179,148.814 293.177,149.305 293.082 C 149.797 292.987,149.300 292.911,148.200 292.914 C 147.100 292.917,146.697 292.995,147.305 293.087 M156.100 293.476 C 156.485 293.576,157.115 293.576,157.500 293.476 C 157.885 293.375,157.570 293.293,156.800 293.293 C 156.030 293.293,155.715 293.375,156.100 293.476 " stroke="none" fill="#643484" fill-rule="evenodd"></path><path id="path4" d="M10.486 201.076 C 10.438 207.938,10.535 213.636,10.700 213.739 C 10.865 213.841,10.954 210.207,10.898 205.662 C 10.706 190.103,10.571 188.605,10.486 201.076 M161.100 293.882 C 161.595 293.978,162.405 293.978,162.900 293.882 C 163.395 293.787,162.990 293.709,162.000 293.709 C 161.010 293.709,160.605 293.787,161.100 293.882 " stroke="none" fill="#64347c" fill-rule="evenodd"></path></g></svg>